<?xml version="1.0" encoding="UTF-8"?>
<svg xmlns="http://www.w3.org/2000/svg" xmlns:xlink="http://www.w3.org/1999/xlink" width="90px" height="90px" viewBox="0 0 90 90" version="1.1">
<g id="surface1">
<rect x="0" y="0" width="90" height="90" style="fill:rgb(0%,0%,0%);fill-opacity:1;stroke:none;"/>
<path style=" stroke:none;fill-rule:nonzero;fill:rgb(100%,100%,100%);fill-opacity:1;" d="M 13.09375 6.328125 C 9.359375 6.328125 6.328125 9.359375 6.328125 13.09375 L 6.328125 76.90625 C 6.328125 80.640625 9.359375 83.671875 13.09375 83.671875 L 76.90625 83.671875 C 80.640625 83.671875 83.671875 80.640625 83.671875 76.90625 L 83.671875 13.09375 C 83.671875 9.359375 80.640625 6.328125 76.90625 6.328125 Z M 21.703125 12.660156 C 26.453125 12.800781 30.234375 16.691406 30.234375 21.445312 C 30.234375 26.300781 26.300781 30.234375 21.445312 30.234375 C 16.589844 30.234375 12.65625 26.300781 12.65625 21.445312 C 12.65625 19.070312 13.617188 16.796875 15.324219 15.140625 C 17.027344 13.484375 19.328125 12.589844 21.703125 12.660156 Z M 68.8125 12.660156 C 73.5625 12.800781 77.34375 16.691406 77.34375 21.445312 C 77.34375 26.300781 73.410156 30.234375 68.554688 30.234375 C 63.699219 30.234375 59.765625 26.300781 59.765625 21.445312 C 59.765625 19.070312 60.726562 16.796875 62.433594 15.140625 C 64.136719 13.484375 66.4375 12.589844 68.8125 12.660156 Z M 21.703125 59.769531 C 26.453125 59.910156 30.234375 63.800781 30.234375 68.554688 C 30.234375 73.410156 26.300781 77.34375 21.445312 77.34375 C 16.589844 77.34375 12.65625 73.410156 12.65625 68.554688 C 12.65625 66.179688 13.617188 63.90625 15.324219 62.25 C 17.027344 60.59375 19.328125 59.699219 21.703125 59.769531 Z M 68.8125 59.769531 C 73.5625 59.910156 77.34375 63.800781 77.34375 68.554688 C 77.34375 73.410156 73.410156 77.34375 68.554688 77.34375 C 63.699219 77.34375 59.765625 73.410156 59.765625 68.554688 C 59.765625 66.179688 60.726562 63.90625 62.433594 62.25 C 64.136719 60.59375 66.4375 59.699219 68.8125 59.769531 Z M 68.8125 59.769531 "/>
</g>
</svg>
