<?xml version="1.0" encoding="UTF-8"?>
<svg xmlns="http://www.w3.org/2000/svg" xmlns:xlink="http://www.w3.org/1999/xlink" width="90px" height="90px" viewBox="0 0 90 90" version="1.1">
<g id="surface1">
<rect x="0" y="0" width="90" height="90" style="fill:rgb(0%,0%,0%);fill-opacity:1;stroke:none;"/>
<path style=" stroke:none;fill-rule:nonzero;fill:rgb(100%,100%,100%);fill-opacity:1;" d="M 13.09375 6.328125 C 9.359375 6.328125 6.328125 9.359375 6.328125 13.09375 L 6.328125 76.90625 C 6.328125 80.640625 9.359375 83.671875 13.09375 83.671875 L 76.90625 83.671875 C 80.640625 83.671875 83.671875 80.640625 83.671875 76.90625 L 83.671875 13.09375 C 83.671875 9.359375 80.640625 6.328125 76.90625 6.328125 Z M 45 36.210938 C 49.855469 36.210938 53.789062 40.144531 53.789062 45 C 53.789062 49.855469 49.855469 53.789062 45 53.789062 C 40.144531 53.789062 36.210938 49.855469 36.210938 45 C 36.210938 40.144531 40.144531 36.210938 45 36.210938 Z M 45 36.210938 "/>
</g>
</svg>
