<?xml version="1.0" encoding="UTF-8"?>
<svg xmlns="http://www.w3.org/2000/svg" xmlns:xlink="http://www.w3.org/1999/xlink" width="90px" height="90px" viewBox="0 0 90 90" version="1.1">
<g id="surface1">
<rect x="0" y="0" width="90" height="90" style="fill:rgb(0%,0%,0%);fill-opacity:1;stroke:none;"/>
<path style=" stroke:none;fill-rule:nonzero;fill:rgb(100%,100%,100%);fill-opacity:1;" d="M 13.09375 6.328125 C 9.359375 6.328125 6.328125 9.359375 6.328125 13.09375 L 6.328125 76.90625 C 6.328125 80.640625 9.359375 83.671875 13.09375 83.671875 L 76.90625 83.671875 C 80.640625 83.671875 83.671875 80.640625 83.671875 76.90625 L 83.671875 13.09375 C 83.671875 9.359375 80.640625 6.328125 76.90625 6.328125 Z M 68.8125 12.660156 C 73.5625 12.800781 77.34375 16.691406 77.34375 21.445312 C 77.34375 26.300781 73.410156 30.234375 68.554688 30.234375 C 63.699219 30.234375 59.765625 26.300781 59.765625 21.445312 C 59.765625 19.070312 60.726562 16.796875 62.433594 15.140625 C 64.136719 13.484375 66.4375 12.589844 68.8125 12.660156 Z M 45 36.210938 C 49.855469 36.210938 53.789062 40.144531 53.789062 45 C 53.789062 49.855469 49.855469 53.789062 45 53.789062 C 40.144531 53.789062 36.210938 49.855469 36.210938 45 C 36.210938 40.144531 40.144531 36.210938 45 36.210938 Z M 21.703125 59.769531 C 26.453125 59.910156 30.234375 63.800781 30.234375 68.554688 C 30.234375 73.410156 26.300781 77.34375 21.445312 77.34375 C 16.589844 77.34375 12.65625 73.410156 12.65625 68.554688 C 12.65625 66.179688 13.617188 63.90625 15.324219 62.25 C 17.027344 60.59375 19.328125 59.699219 21.703125 59.769531 Z M 21.703125 59.769531 "/>
</g>
</svg>
